<svg xmlns="http://www.w3.org/2000/svg" width="24" height="24" viewBox="0 0 24 24">
  <defs>
    <linearGradient id="a" x1="50%" y1="0%" x2="50%" y2="100%">
      <stop offset="0%" stop-color="#02E36F"/>
      <stop offset="100%" stop-color="#07C160"/>
    </linearGradient>
  </defs>
  <g fill="none" fill-rule="evenodd">
    <rect width="24" height="24" fill="url(#a)" rx="4"/>
    <path fill="#FFF" d="M21.6 14.27c0-2.7-2.62-4.88-5.86-4.88-3.23 0-5.85 2.18-5.85 4.88 0 2.68 2.62 4.86 5.85 4.87.67 0 1.32-.1 1.92-.28.05 0 .04 0 .16-.03.12-.03.22.03.31.08l1.27.75c.06.03.09.05.14.05.1 0 .19-.09.19-.19 0-.06-.02-.1-.03-.15-.01-.04-.17-.61-.25-.97-.01-.05-.02-.08-.02-.18 0-.1.05-.2.16-.29 1.22-.87 2.01-2.19 2.01-3.66zm-7.85-.84a.77.77 0 01-.73-.77c0-.4.34-.73.73-.73.44 0 .77.34.77.73 0 .44-.33.77-.77.77zm3.89 0a.77.77 0 01-.73-.77c0-.4.34-.73.73-.73.44 0 .77.34.77.73 0 .44-.33.77-.77.77z"/>
    <path fill="#FFF" d="M2.25 9.86c0 1.75.95 3.33 2.44 4.41.11.08.17.17.17.33 0 .05-.01.11-.03.19-.12.51-.26 1.09-.28 1.17-.02.08-.05.13-.05.19 0 .13.1.23.24.23.05 0 .09-.02.14-.05l1.55-.89c.1-.06.21-.09.28-.09.07 0 .2.02.28.04.72.18 1.49.3 2.3.28.12.02.25.02.37 0a4.8 4.8 0 01-.23-1.4c0-2.97 2.87-5.35 6.42-5.35.12 0 .25 0 .37 0-.53-2.79-3.43-4.92-6.93-4.92-3.89 0-7.04 2.62-7.04 5.86zm4.64-.94a.94.94 0 110-1.88.94.94 0 010 1.88zm4.69 0a.94.94 0 110-1.88.94.94 0 010 1.88z"/>
  </g>
</svg>